<?xml version="1.0" standalone="no"?>
<!DOCTYPE svg PUBLIC "-//W3C//DTD SVG 20010904//EN"
 "http://www.w3.org/TR/2001/REC-SVG-20010904/DTD/svg10.dtd">
<svg version="1.0" xmlns="http://www.w3.org/2000/svg"
 width="353.000000pt" height="353.000000pt" viewBox="0 0 353.000000 353.000000"
 preserveAspectRatio="xMidYMid meet">
<metadata>
Created by potrace 1.14, written by Peter Selinger 2001-2017
</metadata>
<g transform="translate(0.000000,353.000000) scale(0.100000,-0.100000)"
fill="#000000" stroke="none">
<path d="M859 3519 c-24 -4 -62 -9 -84 -12 -22 -3 -76 -18 -120 -33 -274 -92
-495 -304 -593 -569 -24 -64 -27 -74 -47 -175 -15 -73 -13 -295 3 -347 6 -18
9 -33 7 -33 -7 0 53 -166 78 -215 136 -267 399 -461 692 -510 121 -21 298 -12
413 19 378 105 654 426 700 815 47 404 -176 802 -548 977 -147 68 -357 103
-501 83z"/>
<path d="M2361 1877 c-18 -34 -48 -87 -66 -117 -35 -59 -312 -537 -351 -607
-40 -71 -194 -337 -204 -353 -7 -13 -105 -182 -201 -349 -15 -25 -79 -136
-142 -246 l-116 -200 1116 -3 c614 -1 1118 0 1120 2 5 4 -10 31 -166 299 -67
114 -121 212 -121 217 0 6 -4 10 -10 10 -5 0 -10 4 -10 10 0 5 -61 114 -135
241 -74 128 -135 234 -135 236 0 3 -8 17 -19 31 -10 15 -29 47 -43 72 -14 25
-50 88 -80 140 -30 52 -126 219 -213 370 -182 316 -178 310 -185 310 -3 0 -20
-28 -39 -63z"/>
</g>
</svg>
